<?xml version="1.0" encoding="UTF-8"?>
<svg width="186px" height="55px" viewBox="0 0 186 55" version="1.1" xmlns="http://www.w3.org/2000/svg" xmlns:xlink="http://www.w3.org/1999/xlink">
    <!-- Generator: Sketch 43.2 (39069) - http://www.bohemiancoding.com/sketch -->
    <title>btn_apple</title>
    <desc>Created with Sketch.</desc>
    <defs></defs>
    <g id="Page-1" stroke="none" stroke-width="1" fill="none" fill-rule="evenodd">
        <g id="Desktop-HD" transform="translate(-118.000000, -676.000000)">
            <g id="btn_apple" transform="translate(118.000000, 676.000000)">
                <rect id="Rectangle-22" fill="#000000" x="0" y="0" width="186" height="55" rx="6"></rect>
                <path d="M39.976002,26.5585882 C39.9365653,22.231944 43.5647419,20.1270174 43.7306481,20.0290202 C41.6758599,17.0716522 38.4910062,16.6675814 37.3718197,16.6353632 C34.6969234,16.3574807 32.1022603,18.2154005 30.7396543,18.2154005 C29.3498505,18.2154005 27.2515459,16.6622117 24.990055,16.7078543 C22.0798983,16.7521544 19.3574059,18.4154222 17.8642508,20.998253 C14.7827484,26.2645966 17.0809563,34.0036918 20.0332694,38.2605298 C21.510106,40.3466624 23.2358017,42.6730895 25.4945728,42.5912014 C27.704388,42.5026012 28.529839,41.2017888 31.1965761,41.2017888 C33.8388351,41.2017888 34.6139703,42.5912014 36.9176177,42.5388467 C39.2892594,42.5026012 40.7824146,40.4446596 42.2075754,38.3410755 C43.9142327,35.9528968 44.5996154,33.5982787 44.6268131,33.4774602 C44.5724177,33.4586662 40.0222381,31.7430437 39.976002,26.5585882 L39.976002,26.5585882 Z M35.6243658,13.8350591 C36.8129065,12.3677857 37.6261185,10.3715959 37.4003774,8.34587257 C35.6801212,8.42104851 33.5287811,9.52049674 32.2899246,10.9555519 C31.1938563,12.2201187 30.2147382,14.292827 30.467677,16.2420319 C32.4000754,16.3843292 34.3841495,15.2795113 35.6243658,13.8350591 L35.6243658,13.8350591 Z" id="Shape" fill="#FFFFFF" fill-rule="nonzero"></path>
                <path d="M71.9836458,42.29184 L68.895344,42.29184 L67.2036455,37.0442904 L61.3234971,37.0442904 L59.7120319,42.29184 L56.7053233,42.29184 L62.532436,24.4268131 L66.1306952,24.4268131 L71.9836458,42.29184 L71.9836458,42.29184 Z M66.6936881,34.8427091 L65.163816,30.1777731 C65.0019896,29.7012113 64.697375,28.5789418 64.2513323,26.812307 L64.1969369,26.812307 C64.0174319,27.5721211 63.7304959,28.6943906 63.3374887,30.1777731 L61.8334545,34.8427091 L66.6936881,34.8427091 Z M86.9396753,35.6924658 C86.9396753,37.8833077 86.3372457,39.6150393 85.1310266,40.8863183 C84.0512768,42.0179848 82.7090691,42.5831468 81.1084829,42.5831468 C79.3800674,42.5831468 78.1371313,41.9750271 77.3823944,40.7561028 L77.3823944,47.5152259 L74.4831168,47.5152259 L74.4831168,33.6439212 C74.4831168,32.2679329 74.4463999,30.8570415 74.3756858,29.4099045 L76.9254726,29.4099045 L77.0872991,31.4517369 L77.1416946,31.4517369 C78.1085737,29.9133148 79.575891,29.1441038 81.5450064,29.1441038 C83.0843977,29.1441038 84.3694902,29.744169 85.3975643,30.9456417 C86.4242784,32.1497993 86.9396753,33.731179 86.9396753,35.6924658 Z M83.9860023,35.7971751 C83.9860023,34.5433477 83.7004262,33.5096785 83.1265542,32.6948249 C82.4996466,31.8477531 81.657877,31.4235459 80.6026052,31.4235459 C79.887305,31.4235459 79.2372793,31.6598132 78.6566079,32.1256356 C78.0745766,32.5954853 77.6938084,33.2089747 77.5156633,33.9687887 C77.4361357,34.2529426 77.3909453,34.5453872 77.3810345,34.8400242 L77.3810345,36.9892509 C77.3810345,37.9249229 77.6720502,38.7156128 78.2540815,39.3626629 C78.8361129,40.0070282 79.5922097,40.3305532 80.5223719,40.3305532 C81.6143606,40.3305532 82.4642895,39.9130583 83.0721587,39.0847804 C83.6813878,38.2538177 83.9860023,37.1583968 83.9860023,35.7971751 L83.9860023,35.7971751 Z M101.94874,35.6924658 C101.94874,37.8833077 101.346311,39.6150393 100.140092,40.8863183 C99.058982,42.0179848 97.7181341,42.5831468 96.1161881,42.5831468 C94.3877726,42.5831468 93.1448365,41.9750271 92.3900996,40.7561028 L92.3900996,47.5152259 L89.490822,47.5152259 L89.490822,33.6439212 C89.490822,32.2679329 89.4541051,30.8570415 89.383391,29.4099045 L91.9331778,29.4099045 L92.0950043,31.4517369 L92.1493997,31.4517369 C93.114919,29.9133148 94.5822363,29.1441038 96.5527116,29.1441038 C98.090743,29.1441038 99.3758355,29.744169 100.406629,30.9456417 C101.431984,32.1497993 101.94874,33.731179 101.94874,35.6924658 L101.94874,35.6924658 Z M98.9937075,35.7971751 C98.9937075,34.5433477 98.7067715,33.5096785 98.1328995,32.6948249 C97.5059919,31.8477531 96.666942,31.4235459 95.6116703,31.4235459 C94.8963701,31.4235459 94.2463444,31.6598132 93.6629532,32.1256356 C93.0809219,32.5954853 92.7015136,33.2089747 92.5233685,33.9687887 C92.4349759,34.3231896 92.3873799,34.6118115 92.3873799,34.8400242 L92.3873799,36.9892509 C92.3873799,37.9249229 92.6797554,38.7156128 93.259067,39.3626629 C93.8410983,40.0056858 94.5971951,40.3305532 95.5300771,40.3305532 C96.6234257,40.3305532 97.4733546,39.9130583 98.0798639,39.0847804 C98.689093,38.2538177 98.9937075,37.1583968 98.9937075,35.7971751 L98.9937075,35.7971751 Z M118.729737,37.2805577 C118.729737,38.8015282 118.191222,40.037904 117.120992,40.9923701 C115.94333,42.0340939 114.299228,42.5562983 112.191404,42.5562983 C110.244047,42.5562983 108.682897,42.1857882 107.505236,41.4434258 L108.17566,39.0579319 C109.447153,39.8016368 110.843757,40.1721468 112.36411,40.1721468 C113.457458,40.1721468 114.307387,39.927825 114.913896,39.4432086 C115.521766,38.9572498 115.8291,38.3075148 115.8291,37.4966885 C115.8291,36.7704352 115.574801,36.1623155 115.075723,35.6669597 C114.573925,35.1729463 113.744394,34.7124936 112.578972,34.2896289 C109.410437,33.1230593 107.824809,31.4168338 107.824809,29.1722948 C107.824809,27.7063638 108.385082,26.5062335 109.502909,25.5678766 C110.620735,24.6308621 112.103011,24.1623549 113.947017,24.1623549 C115.59384,24.1623549 116.965965,24.4456071 118.055234,25.0107691 L117.327695,27.3439084 C116.30234,26.7961979 115.145077,26.5223427 113.850465,26.5223427 C112.827831,26.5223427 112.025498,26.7706918 111.451626,27.2647051 C110.968866,27.7063638 110.724087,28.2446773 110.724087,28.8836729 C110.724087,29.5884474 111.002863,30.1737458 111.557697,30.6328561 C112.039097,31.0557208 112.917583,31.5161734 114.187717,32.0101868 C115.746147,32.6303884 116.891171,33.3526144 117.62415,34.1822347 C118.362568,35.011855 118.729737,36.0468667 118.729737,37.2805577 Z M128.340054,31.5577887 L125.144321,31.5577887 L125.144321,37.812159 C125.144321,39.4029358 125.707314,40.1963105 126.83602,40.1963105 C127.354136,40.1963105 127.78386,40.1533528 128.123832,40.0634101 L128.204065,42.2368005 C127.632913,42.4475616 126.880896,42.5536134 125.949374,42.5536134 C124.804349,42.5536134 123.909544,42.2086095 123.263598,41.5186017 C122.620372,40.8285939 122.296719,39.6727637 122.296719,38.0457414 L122.296719,31.552419 L120.392878,31.552419 L120.392878,29.4045348 L122.296719,29.4045348 L122.296719,27.0458894 L125.144321,26.1974752 L125.144321,29.4045348 L128.340054,29.4045348 L128.340054,31.5577887 L128.340054,31.5577887 Z M142.730371,35.7448205 C142.730371,37.7249012 142.156499,39.3505811 141.011474,40.62186 C139.813415,41.930727 138.219628,42.5831468 136.232834,42.5831468 C134.315394,42.5831468 132.790962,41.9562331 131.654097,40.7037481 C130.517232,39.4485783 129.948799,37.8671985 129.948799,35.9596089 C129.948799,33.963419 130.53627,32.3283422 131.707132,31.0570632 C132.880714,29.7844418 134.460902,29.1481311 136.447696,29.1481311 C138.362416,29.1481311 139.900447,29.7763872 141.06451,31.0302146 C142.176897,32.2464541 142.730371,33.8170944 142.730371,35.7448205 Z M139.725022,35.8105994 C139.725022,34.6306055 139.466644,33.6184151 138.948527,32.7713433 C138.340658,31.7484134 137.47033,31.2369485 136.342985,31.2369485 C135.181642,31.2369485 134.290916,31.7484134 133.684407,32.7713433 C133.16493,33.6184151 132.906552,34.6480571 132.906552,35.8642965 C132.906552,37.0456328 133.16493,38.0605081 133.684407,38.9048951 C134.311315,39.927825 135.185721,40.4392899 136.318507,40.4392899 C137.426814,40.4392899 138.295781,39.9170855 138.924049,38.879389 C139.457124,38.0121807 139.725022,36.9932782 139.725022,35.8105994 Z M152.158462,31.9269563 C151.856916,31.873215 151.551038,31.8467043 151.244619,31.8477531 C150.224704,31.8477531 149.43597,32.2263177 148.881136,32.9888165 C148.399737,33.6600304 148.157677,34.5084446 148.157677,35.5327169 L148.157677,42.29184 L145.258399,42.29184 L145.258399,33.4667208 C145.260985,32.1144442 145.232873,30.7622801 145.174086,29.4112469 L147.699395,29.4112469 L147.805466,31.875944 L147.8857,31.875944 C148.193034,31.0288722 148.674434,30.3455765 149.335338,29.8341116 C149.940288,29.3871875 150.675322,29.1451651 151.430923,29.1441038 C151.698821,29.1441038 151.940881,29.1628978 152.155743,29.1964585 L152.158462,31.9269563 L152.158462,31.9269563 Z M165.124978,35.2414101 C165.13233,35.6764904 165.096806,36.1112455 165.018907,36.5395376 L156.321074,36.5395376 C156.353712,37.812159 156.775276,38.7867615 157.583049,39.4579753 C158.316028,40.056698 159.263868,40.3574018 160.427931,40.3574018 C161.715743,40.3574018 162.890685,40.1560377 163.947317,39.7492821 L164.401519,41.7347325 C163.166742,42.2663339 161.708944,42.5307921 160.026764,42.5307921 C158.003254,42.5307921 156.414906,41.9428088 155.259003,40.7695271 C154.10582,39.5949029 153.527868,38.016208 153.527868,36.0388121 C153.527868,34.0976618 154.065023,32.4800365 155.140693,31.1899635 C156.266679,29.8126328 157.788392,29.1239674 159.703112,29.1239674 C161.583834,29.1239674 163.007635,29.8126328 163.974514,31.1899635 C164.74013,32.2813572 165.124978,33.6345242 165.124978,35.2414101 L165.124978,35.2414101 Z M162.360329,34.4990476 C162.380728,33.6492909 162.190344,32.9176679 161.797336,32.2988087 C161.295538,31.5014067 160.523123,31.1040482 159.488249,31.1040482 C158.540409,31.1040482 157.767993,31.4920097 157.180522,32.2706178 C156.697763,32.8894769 156.410827,33.6331818 156.322434,34.4963628 L162.360329,34.4990476 Z" id="Shape" fill="#FFFFFF" fill-rule="nonzero"></path>
                <path d="M60.4871671,18.1106911 C59.6807545,18.1106911 58.9831328,18.0717607 58.4024614,18.0059818 L58.4024614,9.36880242 C59.2145971,9.24495693 60.0352908,9.18391461 60.8570561,9.18623226 C64.1819781,9.18623226 65.7132101,10.8011727 65.7132101,13.4336733 C65.7132101,16.4702446 63.9045613,18.1106911 60.4871671,18.1106911 Z M60.9740063,10.2937351 C60.5252439,10.2937351 60.1431158,10.3205836 59.8262623,10.3850201 L59.8262623,16.9508337 C59.997608,16.9776822 60.3267005,16.9897641 60.7890618,16.9897641 C62.9675997,16.9897641 64.207816,15.7654701 64.207816,13.4726037 C64.207816,11.4280864 63.0859098,10.2937351 60.9740063,10.2937351 L60.9740063,10.2937351 Z M70.4850511,18.1764701 C68.6111278,18.1764701 67.3967493,16.7951121 67.3967493,14.9197407 C67.3967493,12.965166 68.6369656,11.5717262 70.5911223,11.5717262 C72.4378478,11.5717262 73.679424,12.8873052 73.679424,14.8163737 C73.679424,16.7951121 72.399771,18.1764701 70.4850511,18.1764701 Z M70.5394466,12.6000257 C69.5100126,12.6000257 68.8504678,13.5504645 68.8504678,14.8794678 C68.8504678,16.1829651 69.5236115,17.1334038 70.5258477,17.1334038 C71.5280839,17.1334038 72.2012276,16.1171861 72.2012276,14.8526193 C72.2012276,13.5638888 71.5416828,12.6000257 70.5394466,12.6000257 Z M84.3654106,11.7019416 L82.3595783,18.0328303 L81.0527275,18.0328303 L80.221837,15.2835386 C80.0152415,14.6110433 79.8432229,13.9286664 79.7064401,13.2390213 L79.6792424,13.2390213 C79.5745311,13.9290291 79.3759877,14.6203793 79.1652054,15.2835386 L78.2812793,18.0328303 L76.9608297,18.0328303 L75.0733075,11.7019416 L76.537905,11.7019416 L77.2640843,14.7116644 C77.43543,15.4285207 77.5795779,16.1051043 77.6992479,16.7440998 L77.7264457,16.7440998 C77.8311569,16.211156 78.0025026,15.5453119 78.2540815,14.7250887 L79.1652054,11.7032841 L80.3265483,11.7032841 L81.1982354,14.6606521 C81.4090178,15.3775085 81.5803634,16.0809406 81.7136323,16.7454422 L81.7517091,16.7454422 C81.8441814,16.0943648 81.9896892,15.4030146 82.1868727,14.6606521 L82.9660876,11.7032841 L84.3654106,11.7019416 L84.3654106,11.7019416 Z M91.7495932,18.0328303 L90.3244323,18.0328303 L90.3244323,14.3975363 C90.3244323,13.2779517 89.8892687,12.7168169 89.0311805,12.7168169 C88.1866911,12.7168169 87.6060196,13.4336733 87.6060196,14.2673208 L87.6060196,18.0328303 L86.1808588,18.0328303 L86.1808588,13.5115341 C86.1808588,12.9517418 86.1672599,12.3516766 86.1278232,11.7005992 L87.3816384,11.7005992 L87.4482728,12.6778865 L87.4877095,12.6778865 C87.8711975,12.001303 88.6490524,11.5717262 89.5207395,11.5717262 C90.867027,11.5717262 91.7509531,12.5879439 91.7509531,14.2418147 L91.7495932,18.0328303 L91.7495932,18.0328303 Z M95.6796646,18.0328303 L94.2531439,18.0328303 L94.2531439,8.79692825 L95.6796646,8.79692825 L95.6796646,18.0328303 Z M100.87579,18.1764701 C99.0032267,18.1764701 97.7874883,16.7951121 97.7874883,14.9197407 C97.7874883,12.965166 99.0277046,11.5717262 100.980501,11.5717262 C102.828587,11.5717262 104.068803,12.8873052 104.068803,14.8163737 C104.070163,16.7951121 102.78915,18.1764701 100.87579,18.1764701 Z M100.928826,12.6000257 C99.8993918,12.6000257 99.2398469,13.5504645 99.2398469,14.8794678 C99.2398469,16.1829651 99.9143505,17.1334038 100.913867,17.1334038 C101.917463,17.1334038 102.589247,16.1171861 102.589247,14.8526193 C102.590607,13.5638888 101.932422,12.6000257 100.928826,12.6000257 L100.928826,12.6000257 Z M109.687853,18.0328303 L109.584502,17.3038921 L109.546425,17.3038921 C109.111262,17.890533 108.476195,18.1764701 107.671142,18.1764701 C106.522038,18.1764701 105.706106,17.3817529 105.706106,16.3131805 C105.706106,14.7505948 107.078232,13.9424534 109.453953,13.9424534 L109.453953,13.8256621 C109.453953,12.9920146 109.00655,12.5745196 108.122624,12.5745196 C107.490277,12.5745196 106.935443,12.7315836 106.447244,13.0443693 L106.157589,12.1194366 C106.750499,11.7542963 107.490277,11.5717262 108.359244,11.5717262 C110.034624,11.5717262 110.880474,12.4443041 110.880474,14.1908025 L110.880474,16.5225993 C110.880474,17.1615948 110.909031,17.6569506 110.972946,18.0341728 L109.687853,18.0328303 L109.687853,18.0328303 Z M109.49203,14.8794678 C107.909122,14.8794678 107.114948,15.2580324 107.114948,16.1561165 C107.114948,16.8206182 107.524274,17.1454857 108.092707,17.1454857 C108.817526,17.1454857 109.49203,16.5991176 109.49203,15.8567551 L109.49203,14.8794678 L109.49203,14.8794678 Z M117.800935,18.0328303 L117.734301,17.0166126 L117.694864,17.0166126 C117.285538,17.7844812 116.597436,18.1764701 115.635996,18.1764701 C114.089805,18.1764701 112.944781,16.8340425 112.944781,14.9452468 C112.944781,12.965166 114.131962,11.5703837 115.752946,11.5703837 C116.611034,11.5703837 117.218904,11.8563208 117.561595,12.4308798 L117.590153,12.4308798 L117.590153,8.79692825 L119.016673,8.79692825 L119.016673,16.3266048 C119.016673,16.9387518 119.031632,17.5119684 119.069709,18.0328303 L117.800935,18.0328303 Z M117.590153,14.3075937 C117.590153,13.4215914 116.995882,12.6658047 116.088838,12.6658047 C115.032206,12.6658047 114.386261,13.5907373 114.386261,14.8928921 C114.386261,16.1695408 115.056684,17.0434612 116.060281,17.0434612 C116.956446,17.0434612 117.590153,16.2742501 117.590153,15.3627418 L117.590153,14.3075937 Z M128.061277,18.1764701 C126.188714,18.1764701 124.974335,16.7951121 124.974335,14.9197407 C124.974335,12.965166 126.214552,11.5717262 128.167348,11.5717262 C130.015434,11.5717262 131.25565,12.8873052 131.25565,14.8163737 C131.25701,16.7951121 129.977357,18.1764701 128.061277,18.1764701 Z M128.114313,12.6000257 C127.086239,12.6000257 126.426694,13.5504645 126.426694,14.8794678 C126.426694,16.1829651 127.099838,17.1334038 128.100714,17.1334038 C129.10431,17.1334038 129.776094,16.1171861 129.776094,14.8526193 C129.778814,13.5638888 129.119269,12.6000257 128.114313,12.6000257 Z M138.919969,18.0328303 L137.493448,18.0328303 L137.493448,14.3975363 C137.493448,13.2779517 137.058285,12.7168169 136.200197,12.7168169 C135.355707,12.7168169 134.776396,13.4336733 134.776396,14.2673208 L134.776396,18.0328303 L133.349875,18.0328303 L133.349875,13.5115341 C133.349875,12.9517418 133.336276,12.3516766 133.296839,11.7005992 L134.550655,11.7005992 L134.617289,12.6778865 L134.656726,12.6778865 C135.038854,12.001303 135.818069,11.5703837 136.688396,11.5703837 C138.034683,11.5703837 138.919969,12.5866014 138.919969,14.2404723 L138.919969,18.0328303 Z M148.508528,12.7570898 L146.940579,12.7570898 L146.940579,15.831249 C146.940579,16.6138843 147.215276,17.0045308 147.770109,17.0045308 C148.021688,17.0045308 148.232471,16.9776822 148.402456,16.9387518 L148.441893,18.0073242 C148.165836,18.1120336 147.795947,18.1643882 147.336306,18.1643882 C146.213039,18.1643882 145.541256,17.5522412 145.541256,15.9493827 L145.541256,12.7570898 L144.605654,12.7570898 L144.605654,11.7019416 L145.541256,11.7019416 L145.541256,10.5420842 L146.940579,10.1245892 L146.940579,11.7005992 L148.508528,11.7005992 L148.508528,12.7570898 L148.508528,12.7570898 Z M156.053177,18.0328303 L154.629376,18.0328303 L154.629376,14.4243849 C154.629376,13.291376 154.195572,12.7181594 153.336124,12.7181594 C152.597706,12.7181594 151.909603,13.2135151 151.909603,14.2163086 L151.909603,18.0328303 L150.485802,18.0328303 L150.485802,8.79692825 L151.909603,8.79692825 L151.909603,12.6000257 L151.938161,12.6000257 C152.386923,11.9100179 153.036949,11.5703837 153.86648,11.5703837 C155.223646,11.5703837 156.053177,12.6121076 156.053177,14.2673208 L156.053177,18.0328303 L156.053177,18.0328303 Z M163.78277,15.2056777 L159.505928,15.2056777 C159.533126,16.4044656 160.336819,17.0810491 161.526719,17.0810491 C162.159066,17.0810491 162.741098,16.9763398 163.255135,16.7816878 L163.476796,17.7589751 C162.870287,18.0194061 162.156346,18.1496215 161.325456,18.1496215 C159.319624,18.1496215 158.132443,16.898479 158.132443,14.9586711 C158.132443,13.0175207 159.348181,11.5583019 161.164989,11.5583019 C162.803652,11.5583019 163.831726,12.7570898 163.831726,14.5680246 C163.840942,14.7817378 163.824509,14.9957768 163.78277,15.2056777 L163.78277,15.2056777 Z M162.47592,14.2028843 C162.47592,13.225597 161.976841,12.5355892 161.065718,12.5355892 C160.247066,12.5355892 159.59976,13.2390213 159.507288,14.2028843 L162.47592,14.2028843 L162.47592,14.2028843 Z" id="Shape" fill="#FFFFFF" fill-rule="nonzero"></path>
            </g>
        </g>
    </g>
</svg>