<?xml version="1.0" encoding="UTF-8"?>
<svg width="186px" height="55px" viewBox="0 0 186 55" version="1.1" xmlns="http://www.w3.org/2000/svg" xmlns:xlink="http://www.w3.org/1999/xlink">
    <!-- Generator: Sketch 43.2 (39069) - http://www.bohemiancoding.com/sketch -->
    <title>btn_google</title>
    <desc>Created with Sketch.</desc>
    <defs>
        <linearGradient x1="90.7692308%" y1="4.84%" x2="-38.3307692%" y2="71.968%" id="linearGradient-1">
            <stop stop-color="#00A0FF" offset="0%"></stop>
            <stop stop-color="#00A1FF" offset="0.7%"></stop>
            <stop stop-color="#00BEFF" offset="26%"></stop>
            <stop stop-color="#00D2FF" offset="51.2%"></stop>
            <stop stop-color="#00DFFF" offset="76%"></stop>
            <stop stop-color="#00E3FF" offset="100%"></stop>
        </linearGradient>
        <linearGradient x1="107.724138%" y1="49.4235294%" x2="-130.669951%" y2="49.4235294%" id="linearGradient-2">
            <stop stop-color="#FFE000" offset="0%"></stop>
            <stop stop-color="#FFBD00" offset="40.9%"></stop>
            <stop stop-color="#FFA500" offset="77.5%"></stop>
            <stop stop-color="#FF9C00" offset="100%"></stop>
        </linearGradient>
        <linearGradient x1="86.3892216%" y1="17.81427%" x2="-49.8862275%" y2="194.389687%" id="linearGradient-3">
            <stop stop-color="#FF3A44" offset="0%"></stop>
            <stop stop-color="#C31162" offset="100%"></stop>
        </linearGradient>
        <linearGradient x1="-18.5808383%" y1="-54.5282125%" x2="42.2754491%" y2="24.6924404%" id="linearGradient-4">
            <stop stop-color="#32A071" offset="0%"></stop>
            <stop stop-color="#2DA771" offset="6.9%"></stop>
            <stop stop-color="#15CF74" offset="47.6%"></stop>
            <stop stop-color="#06E775" offset="80.1%"></stop>
            <stop stop-color="#00F076" offset="100%"></stop>
        </linearGradient>
    </defs>
    <g id="Page-1" stroke="none" stroke-width="1" fill="none" fill-rule="evenodd">
        <g id="Desktop-HD" transform="translate(-322.000000, -676.000000)" fill-rule="nonzero">
            <g id="btn_google" transform="translate(322.000000, 676.000000)">
                <path d="M179.111111,55 L6.88888889,55 C3.03111111,55 0,51.975 0,48.125 L0,6.875 C0,3.025 3.03111111,0 6.88888889,0 L179.111111,0 C182.968889,0 186,3.025 186,6.875 L186,48.125 C186,51.975 182.968889,55 179.111111,55 Z" id="Shape" fill="#000000"></path>
                <path d="M65.175,14.025 C65.175,15.125 64.9,16.0875 64.2125,16.775 C63.3875,17.6 62.425,18.0125 61.1875,18.0125 C59.95,18.0125 58.9875,17.6 58.1625,16.775 C57.3375,15.95 56.925,14.9875 56.925,13.75 C56.925,12.5125 57.3375,11.55 58.1625,10.725 C58.9875,9.9 59.95,9.4875 61.1875,9.4875 C61.7375,9.4875 62.2875,9.625 62.8375,9.9 C63.3875,10.175 63.8,10.45 64.075,10.8625 L63.3875,11.55 C62.8375,10.8625 62.15,10.5875 61.1875,10.5875 C60.3625,10.5875 59.5375,10.8625 58.9875,11.55 C58.3,12.1 58.025,12.925 58.025,13.8875 C58.025,14.85 58.3,15.675 58.9875,16.225 C59.675,16.775 60.3625,17.1875 61.1875,17.1875 C62.15,17.1875 62.8375,16.9125 63.525,16.225 C63.9375,15.8125 64.2125,15.2625 64.2125,14.575 L61.1875,14.575 L61.1875,13.475 L65.175,13.475 L65.175,14.025 L65.175,14.025 Z M71.5,10.5875 L67.7875,10.5875 L67.7875,13.2 L71.225,13.2 L71.225,14.1625 L67.7875,14.1625 L67.7875,16.775 L71.5,16.775 L71.5,17.875 L66.6875,17.875 L66.6875,9.625 L71.5,9.625 L71.5,10.5875 Z M76.0375,17.875 L74.9375,17.875 L74.9375,10.5875 L72.6,10.5875 L72.6,9.625 L78.375,9.625 L78.375,10.5875 L76.0375,10.5875 L76.0375,17.875 Z M82.3625,17.875 L82.3625,9.625 L83.4625,9.625 L83.4625,17.875 L82.3625,17.875 Z M88.1375,17.875 L87.0375,17.875 L87.0375,10.5875 L84.7,10.5875 L84.7,9.625 L90.3375,9.625 L90.3375,10.5875 L88,10.5875 L88,17.875 L88.1375,17.875 Z M101.2,16.775 C100.375,17.6 99.4125,18.0125 98.175,18.0125 C96.9375,18.0125 95.975,17.6 95.15,16.775 C94.325,15.95 93.9125,14.9875 93.9125,13.75 C93.9125,12.5125 94.325,11.55 95.15,10.725 C95.975,9.9 96.9375,9.4875 98.175,9.4875 C99.4125,9.4875 100.375,9.9 101.2,10.725 C102.025,11.55 102.4375,12.5125 102.4375,13.75 C102.4375,14.9875 102.025,15.95 101.2,16.775 Z M95.975,16.0875 C96.525,16.6375 97.35,17.05 98.175,17.05 C99,17.05 99.825,16.775 100.375,16.0875 C100.925,15.5375 101.3375,14.7125 101.3375,13.75 C101.3375,12.7875 101.0625,11.9625 100.375,11.4125 C99.825,10.8625 99,10.45 98.175,10.45 C97.35,10.45 96.525,10.725 95.975,11.4125 C95.425,11.9625 95.0125,12.7875 95.0125,13.75 C95.0125,14.7125 95.2875,15.5375 95.975,16.0875 Z M103.95,17.875 L103.95,9.625 L105.1875,9.625 L109.175,16.0875 L109.175,9.625 L110.275,9.625 L110.275,17.875 L109.175,17.875 L104.9125,11.1375 L104.9125,17.875 L103.95,17.875 L103.95,17.875 Z" id="Shape" stroke="#FFFFFF" stroke-width="0.2" fill="#FFFFFF"></path>
                <path d="M93.6375,29.975 C90.3375,29.975 87.725,32.45 87.725,35.8875 C87.725,39.1875 90.3375,41.8 93.6375,41.8 C96.9375,41.8 99.55,39.325 99.55,35.8875 C99.55,32.3125 96.9375,29.975 93.6375,29.975 Z M93.6375,39.325 C91.85,39.325 90.3375,37.8125 90.3375,35.75 C90.3375,33.6875 91.85,32.175 93.6375,32.175 C95.425,32.175 96.9375,33.55 96.9375,35.75 C96.9375,37.8125 95.425,39.325 93.6375,39.325 Z M80.85,29.975 C77.55,29.975 74.9375,32.45 74.9375,35.8875 C74.9375,39.1875 77.55,41.8 80.85,41.8 C84.15,41.8 86.7625,39.325 86.7625,35.8875 C86.7625,32.3125 84.15,29.975 80.85,29.975 Z M80.85,39.325 C79.0625,39.325 77.55,37.8125 77.55,35.75 C77.55,33.6875 79.0625,32.175 80.85,32.175 C82.6375,32.175 84.15,33.55 84.15,35.75 C84.15,37.8125 82.6375,39.325 80.85,39.325 Z M65.5875,31.7625 L65.5875,34.2375 L71.5,34.2375 C71.3625,35.6125 70.8125,36.7125 70.125,37.4 C69.3,38.225 67.925,39.1875 65.5875,39.1875 C61.875,39.1875 59.125,36.3 59.125,32.5875 C59.125,28.875 62.0125,25.9875 65.5875,25.9875 C67.5125,25.9875 69.025,26.8125 70.125,27.775 L71.9125,25.9875 C70.4,24.6125 68.475,23.5125 65.725,23.5125 C60.775,23.5125 56.5125,27.6375 56.5125,32.5875 C56.5125,37.5375 60.775,41.6625 65.725,41.6625 C68.475,41.6625 70.4,40.8375 72.05,39.05 C73.7,37.4 74.25,35.0625 74.25,33.275 C74.25,32.725 74.25,32.175 74.1125,31.7625 L65.5875,31.7625 L65.5875,31.7625 Z M128.0125,33.6875 C127.4625,32.3125 126.0875,29.975 123.0625,29.975 C120.0375,29.975 117.5625,32.3125 117.5625,35.8875 C117.5625,39.1875 120.0375,41.8 123.3375,41.8 C125.95,41.8 127.6,40.15 128.15,39.1875 L126.225,37.8125 C125.5375,38.775 124.7125,39.4625 123.3375,39.4625 C121.9625,39.4625 121.1375,38.9125 120.45,37.675 L128.2875,34.375 L128.0125,33.6875 L128.0125,33.6875 Z M120.0375,35.6125 C120.0375,33.4125 121.825,32.175 123.0625,32.175 C124.025,32.175 124.9875,32.725 125.2625,33.4125 L120.0375,35.6125 Z M113.575,41.25 L116.1875,41.25 L116.1875,24.0625 L113.575,24.0625 L113.575,41.25 Z M109.45,31.2125 C108.7625,30.525 107.6625,29.8375 106.2875,29.8375 C103.4,29.8375 100.65,32.45 100.65,35.75 C100.65,39.05 103.2625,41.525 106.2875,41.525 C107.6625,41.525 108.7625,40.8375 109.3125,40.15 L109.45,40.15 L109.45,40.975 C109.45,43.175 108.2125,44.4125 106.2875,44.4125 C104.775,44.4125 103.675,43.3125 103.4,42.35 L101.2,43.3125 C101.8875,44.825 103.5375,46.75 106.425,46.75 C109.45,46.75 111.925,44.9625 111.925,40.7 L111.925,30.25 L109.45,30.25 L109.45,31.2125 L109.45,31.2125 Z M106.425,39.325 C104.6375,39.325 103.125,37.8125 103.125,35.75 C103.125,33.6875 104.6375,32.175 106.425,32.175 C108.2125,32.175 109.5875,33.6875 109.5875,35.75 C109.5875,37.8125 108.2125,39.325 106.425,39.325 Z M139.975,24.0625 L133.7875,24.0625 L133.7875,41.25 L136.4,41.25 L136.4,34.7875 L139.975,34.7875 C142.8625,34.7875 145.6125,32.725 145.6125,29.425 C145.6125,26.125 142.8625,24.0625 139.975,24.0625 L139.975,24.0625 Z M140.1125,32.3125 L136.4,32.3125 L136.4,26.4 L140.1125,26.4 C142.0375,26.4 143.1375,28.05 143.1375,29.2875 C143,30.8 141.9,32.3125 140.1125,32.3125 Z M155.925,29.8375 C154,29.8375 152.075,30.6625 151.3875,32.45 L153.725,33.4125 C154.275,32.45 155.1,32.175 156.0625,32.175 C157.4375,32.175 158.675,33 158.8125,34.375 L158.8125,34.5125 C158.4,34.2375 157.3,33.825 156.2,33.825 C153.725,33.825 151.25,35.2 151.25,37.675 C151.25,40.0125 153.3125,41.525 155.5125,41.525 C157.3,41.525 158.125,40.7 158.8125,39.875 L158.95,39.875 L158.95,41.25 L161.425,41.25 L161.425,34.65 C161.15,31.625 158.8125,29.8375 155.925,29.8375 L155.925,29.8375 Z M155.65,39.325 C154.825,39.325 153.5875,38.9125 153.5875,37.8125 C153.5875,36.4375 155.1,36.025 156.3375,36.025 C157.4375,36.025 157.9875,36.3 158.675,36.575 C158.4,38.225 157.025,39.325 155.65,39.325 L155.65,39.325 Z M170.0875,30.25 L167.2,37.675 L167.0625,37.675 L164.0375,30.25 L161.2875,30.25 L165.825,40.7 L163.2125,46.475 L165.825,46.475 L172.8375,30.25 L170.0875,30.25 L170.0875,30.25 Z M146.9875,41.25 L149.6,41.25 L149.6,24.0625 L146.9875,24.0625 L146.9875,41.25 Z" id="Shape" fill="#FFFFFF"></path>
                <g id="Group" transform="translate(13.750000, 9.625000)">
                    <path d="M0.55,0.6875 C0.1375,1.1 0,1.7875 0,2.6125 L0,33 C0,33.825 0.275,34.5125 0.6875,34.925 L0.825,35.0625 L17.875,18.0125 L17.875,17.7375 L0.55,0.6875 Z" id="Shape" fill="url(#linearGradient-1)"></path>
                    <path d="M23.375,23.7875 L17.7375,18.15 L17.7375,17.7375 L23.375,12.1 L23.5125,12.2375 L30.25,16.0875 C32.175,17.1875 32.175,18.975 30.25,20.075 L23.375,23.7875 L23.375,23.7875 Z" id="Shape" fill="url(#linearGradient-2)"></path>
                    <path d="M23.5125,23.65 L17.7375,17.875 L0.55,35.0625 C1.2375,35.75 2.2,35.75 3.4375,35.2 L23.5125,23.65" id="Shape" fill="url(#linearGradient-3)"></path>
                    <path d="M23.5125,12.1 L3.4375,0.6875 C2.2,-8.32667268e-17 1.2375,0.1375 0.55,0.825 L17.7375,17.875 L23.5125,12.1 L23.5125,12.1 Z" id="Shape" fill="url(#linearGradient-4)"></path>
                    <path d="M23.375,23.5125 L3.4375,34.7875 C2.3375,35.475 1.375,35.3375 0.6875,34.7875 L0.55,34.925 L0.6875,35.0625 C1.375,35.6125 2.3375,35.75 3.4375,35.0625 L23.375,23.5125 Z" id="Shape" fill="#000000" opacity="0.2"></path>
                    <path d="M0.55,34.7875 C0.1375,34.375 0,33.6875 0,32.8625 L0,33 C0,33.825 0.275,34.5125 0.6875,34.925 L0.6875,34.7875 L0.55,34.7875 Z M30.25,19.6625 L23.375,23.5125 L23.5125,23.65 L30.25,19.8 C31.2125,19.25 31.625,18.5625 31.625,17.875 C31.625,18.5625 31.075,19.1125 30.25,19.6625 L30.25,19.6625 Z" id="Shape" fill="#000000" opacity="0.12"></path>
                    <path d="M3.4375,0.825 L30.25,16.0875 C31.075,16.6375 31.625,17.1875 31.625,17.875 C31.625,17.1875 31.2125,16.5 30.25,15.95 L3.4375,0.6875 C1.5125,-0.4125 0,0.4125 0,2.6125 L0,2.75 C0,0.6875 1.5125,-0.275 3.4375,0.825 Z" id="Shape" fill="#FFFFFF" opacity="0.25"></path>
                </g>
            </g>
        </g>
    </g>
</svg>