<?xml version="1.0" encoding="UTF-8"?>
<svg width="210px" height="37px" viewBox="0 0 210 37" version="1.1" xmlns="http://www.w3.org/2000/svg" xmlns:xlink="http://www.w3.org/1999/xlink">
    <!-- Generator: Sketch 43.2 (39069) - http://www.bohemiancoding.com/sketch -->
    <title>logo</title>
    <desc>Created with Sketch.</desc>
    <defs></defs>
    <g id="Page-1" stroke="none" stroke-width="1" fill="none" fill-rule="evenodd">
        <g id="Desktop-HD" transform="translate(-122.000000, -30.000000)" fill="#FFFFFF">
            <g id="logo" transform="translate(122.000000, 30.000000)">
                <path d="M0.327178486,4.29977216 C0.327178486,2.58032303 1.69219343,1.22040164 3.41758682,1.22040164 C5.14370532,1.22040164 6.50872027,2.58032303 6.50872027,4.29977216 L6.50872027,12.534962 L17.9070483,12.534962 L17.9070483,4.29977216 C17.9070483,2.58032303 19.2722445,1.22040164 20.998363,1.22040164 C22.7235751,1.22040164 24.0887713,2.58032303 24.0887713,4.29977216 L24.0887713,26.6089114 C24.0887713,28.3283606 22.7235751,29.6873791 20.998363,29.6873791 C19.2722445,29.6873791 17.9070483,28.3283606 17.9070483,26.6089114 L17.9070483,18.2128279 L6.50872027,18.2128279 L6.50872027,26.6089114 C6.50872027,28.3283606 5.14370532,29.6873791 3.41758682,29.6873791 C1.69219343,29.6873791 0.327178486,28.3283606 0.327178486,26.6089114 L0.327178486,4.29977216" id="Fill-1"></path>
                <path d="M40.5033933,21.8920735 L40.5033933,20.8124068 C39.4601448,20.3317122 38.0951298,20.0119113 36.6101096,20.0119113 C34.0013539,20.0119113 32.3959658,21.0511289 32.3959658,22.9702956 L32.3959658,23.0513744 C32.3959658,24.6897447 33.7602557,25.6493281 35.7274724,25.6493281 C38.5767825,25.6493281 40.5033933,24.090592 40.5033933,21.8920735 Z M26.4954032,23.2900965 L26.4954032,23.2106429 C26.4954032,18.5328094 30.0676455,16.373476 35.1651515,16.373476 C37.3330418,16.373476 38.8978239,16.7337261 40.4234502,17.2534252 L40.4234502,16.8928139 C40.4234502,14.3744945 38.857943,12.9750269 35.8074155,12.9750269 C34.1220843,12.9750269 32.7568881,13.2151936 31.5930905,13.5756242 C31.231987,13.6944435 30.9908887,13.7348927 30.7097283,13.7348927 C29.3053762,13.7348927 28.1809157,12.6552259 28.1809157,11.2555777 C28.1809157,10.1757305 28.8637857,9.25749911 29.8270911,8.89706848 C31.7537018,8.1778324 33.8407426,7.77839726 36.6907778,7.77839726 C40.0217406,7.77839726 42.430004,8.65762408 43.9556303,10.1757305 C45.5610184,11.7752768 46.2832255,14.1343278 46.2832255,17.0128973 L46.2832255,26.7696245 C46.2832255,28.4079948 44.9588165,29.6873791 43.3133663,29.6873791 C41.5473668,29.6873791 40.3826629,28.4484439 40.3826629,27.1690596 L40.3826629,27.1284299 C38.8978239,28.7682448 36.850664,29.8480921 33.8808048,29.8480921 C29.8270911,29.8480921 26.4954032,27.5294903 26.4954032,23.2900965 L26.4954032,23.2900965 Z" id="Fill-2"></path>
                <path d="M48.7698005,10.8155129 C48.7698005,9.13741576 50.1340903,7.77839726 51.8203279,7.77839726 C53.5063842,7.77839726 54.8708553,9.13741576 54.8708553,10.8155129 L54.8708553,11.7752768 C55.7542176,9.69684166 57.1984505,7.77839726 59.005056,7.77839726 C60.8917858,7.77839726 61.9749152,9.01715183 61.9749152,10.7360592 C61.9749152,12.3352444 60.931848,13.2948278 59.6873822,13.5756242 C56.5969738,14.2950409 54.8708553,16.6540919 54.8708553,20.9714946 L54.8708553,26.6495411 C54.8708553,28.3283606 53.5063842,29.6873791 51.8203279,29.6873791 C50.1340903,29.6873791 48.7698005,28.3283606 48.7698005,26.6495411 L48.7698005,10.8155129" id="Fill-3"></path>
                <path d="M78.7138415,17.6933094 L78.7138415,17.6138558 C78.7138415,14.694476 76.4261272,12.6552259 73.4568118,12.6552259 C70.4856837,12.6552259 68.2378503,14.694476 68.2378503,17.6138558 L68.2378503,17.6933094 C68.2378503,20.6516937 70.4856837,22.6503141 73.4568118,22.6503141 C76.4261272,22.6503141 78.7138415,20.6126892 78.7138415,17.6933094 Z M64.8664628,34.4461107 C63.8232143,34.0468562 63.1403443,33.205731 63.1403443,32.0870598 C63.1403443,30.7280413 64.264261,29.6079254 65.6290946,29.6079254 C66.0302604,29.6079254 66.3513018,29.6873791 66.6324622,29.8074624 C68.3984616,30.6079579 70.2844663,31.0870273 72.5721806,31.0870273 C76.7469873,31.0870273 78.7138415,29.0882263 78.7138415,25.2498929 L78.7138415,24.2106753 C76.9083237,26.3701893 74.9414695,27.6887587 71.6893622,27.6887587 C66.6723431,27.6887587 62.1369767,24.0499623 62.1369767,17.6933094 L62.1369767,17.6138558 C62.1369767,11.2165732 66.7530113,7.6176842 71.6893622,7.6176842 C75.0212313,7.6176842 76.9880855,9.01715183 78.6340797,10.8155129 L78.6340797,10.7765084 C78.6340797,9.13741576 79.9972818,7.77839726 81.6831569,7.77839726 C83.3690319,7.77839726 84.7340468,9.13741576 84.7340468,10.8155129 L84.7340468,24.6101105 C84.7340468,28.4484439 83.8113475,31.2477403 82.004017,33.0466431 C79.9972818,35.045444 76.9083237,35.9253932 72.733517,35.9253932 C69.8834819,35.9253932 67.3952753,35.4448792 64.8664628,34.4461107 L64.8664628,34.4461107 Z" id="Fill-4"></path>
                <path d="M100.869502,21.8920735 L100.869502,20.8124068 C99.8253475,20.3317122 98.4603326,20.0119113 96.9756749,20.0119113 C94.3671005,20.0119113 92.7609873,21.0511289 92.7609873,22.9702956 L92.7609873,23.0513744 C92.7609873,24.6897447 94.1260023,25.6493281 96.0910437,25.6493281 C98.9425291,25.6493281 100.869502,24.090592 100.869502,21.8920735 Z M86.8604247,23.2900965 L86.8604247,23.2106429 C86.8604247,18.5328094 90.4333921,16.373476 95.5308981,16.373476 C97.6971569,16.373476 99.2633892,16.7337261 100.789741,17.2534252 L100.789741,16.8928139 C100.789741,14.3744945 99.2235083,12.9750269 96.1726183,12.9750269 C94.4867433,12.9750269 93.1217283,13.2151936 91.9579307,13.5756242 C91.5953769,13.6944435 91.3560915,13.7348927 91.0751123,13.7348927 C89.6702164,13.7348927 88.5462997,12.6552259 88.5462997,11.2555777 C88.5462997,10.1757305 89.2297136,9.25749911 90.1922939,8.89706848 C92.1192671,8.1778324 94.2057641,7.77839726 97.0554367,7.77839726 C100.387306,7.77839726 102.796476,8.65762408 104.321014,10.1757305 C105.927127,11.7752768 106.648609,14.1343278 106.648609,17.0128973 L106.648609,26.7696245 C106.648609,28.4079948 105.323475,29.6873791 103.679294,29.6873791 C101.911844,29.6873791 100.748047,28.4484439 100.748047,27.1690596 L100.748047,27.1284299 C99.2633892,28.7682448 97.2167732,29.8480921 94.2474578,29.8480921 C90.1922939,29.8480921 86.8604247,27.5294903 86.8604247,23.2900965 L86.8604247,23.2900965 Z" id="Fill-5"></path>
                <path d="M125.450648,18.7731567 L125.450648,18.6933419 C125.450648,15.1343603 123.041478,12.7753093 120.193618,12.7753093 C117.342133,12.7753093 114.972844,15.1343603 114.972844,18.6933419 L114.972844,18.7731567 C114.972844,22.3305131 117.342133,24.6897447 120.193618,24.6897447 C123.041478,24.6897447 125.450648,22.3709623 125.450648,18.7731567 Z M108.954451,10.8155129 C108.954451,9.13741576 110.319466,7.77839726 112.003529,7.77839726 C113.689404,7.77839726 115.054419,9.13741576 115.054419,10.8155129 L115.054419,11.0963093 C116.540889,9.09768894 118.587505,7.6176842 121.758038,7.6176842 C126.773969,7.6176842 131.552428,11.5363741 131.552428,18.6933419 L131.552428,18.7731567 C131.552428,25.9301245 126.853731,29.8480921 121.758038,29.8480921 C118.505931,29.8480921 116.499195,28.3688097 115.054419,26.6495411 L115.054419,33.0466431 C115.054419,34.7254625 113.689404,36.0846616 112.003529,36.0846616 C110.319466,36.0846616 108.954451,34.7254625 108.954451,33.0466431 L108.954451,10.8155129 L108.954451,10.8155129 Z" id="Fill-6"></path>
                <path d="M148.49094,17.053527 C148.130199,14.3340454 146.524086,12.4959575 143.955392,12.4959575 C141.42658,12.4959575 139.782399,14.2950409 139.298389,17.053527 L148.49094,17.053527 Z M144.557232,29.9275458 C138.094711,29.9275458 133.318065,25.4104254 133.318065,18.8526104 L133.318065,18.7731567 C133.318065,12.6552259 137.694089,7.6176842 143.955392,7.6176842 C151.139395,7.6176842 154.311741,13.4945454 154.311741,17.9334761 C154.311741,19.6919298 153.066369,20.8514113 151.460255,20.8514113 L139.378151,20.8514113 C139.981803,23.610078 141.908776,25.0499948 144.636994,25.0499948 C146.322869,25.0499948 147.727764,24.5304763 148.973137,23.610078 C149.415452,23.2900965 149.816074,23.1308281 150.457794,23.1308281 C151.822809,23.1308281 152.82527,24.1700456 152.82527,25.5292447 C152.82527,26.3295596 152.464529,26.9288929 152.022214,27.3295921 C150.136934,28.9291385 147.687884,29.9275458 144.557232,29.9275458 L144.557232,29.9275458 Z" id="Fill-7"></path>
                <path d="M162.238979,18.6933419 L162.238979,18.7731567 C162.238979,22.3305131 164.648149,24.6897447 167.497822,24.6897447 C170.345681,24.6897447 172.71497,22.3305131 172.71497,18.7731567 L172.71497,18.6933419 C172.71497,15.1343603 170.345681,12.7753093 167.497822,12.7753093 C164.648149,12.7753093 162.238979,15.0939112 162.238979,18.6933419 Z M178.735176,26.6495411 C178.735176,28.3283606 177.371973,29.6873791 175.686098,29.6873791 C173.998411,29.6873791 172.635208,28.3283606 172.635208,26.6495411 L172.635208,26.3701893 C171.150551,28.3688097 169.102122,29.8480921 165.931589,29.8480921 C160.915658,29.8480921 156.137199,25.9301245 156.137199,18.7731567 L156.137199,18.6933419 C156.137199,11.5363741 160.834083,7.6176842 165.931589,7.6176842 C169.181884,7.6176842 171.190432,9.09768894 172.635208,10.8155129 L172.635208,3.05993413 C172.635208,1.3811147 173.998411,0.0213738856 175.686098,0.0213738856 C177.371973,0.0213738856 178.735176,1.3811147 178.735176,3.05993413 L178.735176,26.6495411 L178.735176,26.6495411 Z" id="Fill-8"></path>
                <path d="M182.065232,10.8155129 C182.065232,9.13741576 183.430247,7.77839726 185.116122,7.77839726 C186.801997,7.77839726 188.167012,9.13741576 188.167012,10.8155129 L188.167012,26.6495411 C188.167012,28.3283606 186.801997,29.6873791 185.116122,29.6873791 C183.430247,29.6873791 182.065232,28.3283606 182.065232,26.6495411 L182.065232,10.8155129 Z M181.704491,2.90012395 C181.704491,1.14094799 183.190961,0.0611007088 185.116122,0.0611007088 C187.043095,0.0611007088 188.527753,1.14094799 188.527753,2.90012395 L188.527753,2.98048048 C188.527753,4.73893413 187.043095,5.85923055 185.116122,5.85923055 C183.190961,5.85923055 181.704491,4.73893413 181.704491,2.98048048 L181.704491,2.90012395 L181.704491,2.90012395 Z" id="Fill-9"></path>
                <path d="M204.220893,21.8920735 L204.220893,20.8124068 C203.176738,20.3317122 201.811723,20.0119113 200.327065,20.0119113 C197.718491,20.0119113 196.112378,21.0511289 196.112378,22.9702956 L196.112378,23.0513744 C196.112378,24.6897447 197.477393,25.6493281 199.444247,25.6493281 C202.29392,25.6493281 204.220893,24.090592 204.220893,21.8920735 Z M190.211815,23.2900965 L190.211815,23.2106429 C190.211815,18.5328094 193.784783,16.373476 198.882289,16.373476 C201.05036,16.373476 202.61478,16.7337261 204.139318,17.2534252 L204.139318,16.8928139 C204.139318,14.3744945 202.574899,12.9750269 199.524009,12.9750269 C197.838134,12.9750269 196.474932,13.2151936 195.311134,13.5756242 C194.94858,13.6944435 194.707482,13.7348927 194.426503,13.7348927 C193.021607,13.7348927 191.89769,12.6552259 191.89769,11.2555777 C191.89769,10.1757305 192.581104,9.25749911 193.543684,8.89706848 C195.470658,8.1778324 197.558967,7.77839726 200.406827,7.77839726 C203.738696,7.77839726 206.146053,8.65762408 207.672405,10.1757305 C209.278518,11.7752768 210,14.1343278 210,17.0128973 L210,26.7696245 C210,28.4079948 208.676679,29.6873791 207.030685,29.6873791 C205.265048,29.6873791 204.099437,28.4484439 204.099437,27.1690596 L204.099437,27.1284299 C202.61478,28.7682448 200.568164,29.8480921 197.597036,29.8480921 C193.543684,29.8480921 190.211815,27.5294903 190.211815,23.2900965 L190.211815,23.2900965 Z" id="Fill-10"></path>
            </g>
        </g>
    </g>
</svg>